<?xml version="1.0" encoding="utf-8"?>
<!-- Generator: Adobe Illustrator 12.0.0, SVG Export Plug-In . SVG Version: 6.00 Build 51448)  -->
<!DOCTYPE svg PUBLIC "-//W3C//DTD SVG 1.1//EN" "http://www.w3.org/Graphics/SVG/1.1/DTD/svg11.dtd" [
	<!ENTITY ns_svg "http://www.w3.org/2000/svg">
	<!ENTITY ns_xlink "http://www.w3.org/1999/xlink">
]>
<svg  version="1.1" xmlns="&ns_svg;" xmlns:xlink="&ns_xlink;" width="476" height="780" viewBox="0 0 476 780"
	 overflow="visible" enable-background="new 0 0 476 780" xml:space="preserve">
<g id="circle" display="none">
	<circle display="inline" fill="#FFA4A4" stroke="#A31919" cx="237" cy="415" r="155"/>
</g>
<g id="background" opacity="0.1">
	<rect fill="#FFFFFF" width="476" height="780"/>
</g>
<g id="spades_x5F_small" display="none">
	<g transform="translate(-255.2 -410.57)" display="inline">
		<path stroke="#008484" stroke-width="0.0581" stroke-linecap="round" stroke-linejoin="round" d="M322.22,554.57
			c0,11.526-17.827,19.252-18.016,28.69c0,5.178,4.071,9.375,9.09,9.375c3.774,0,7.01-2.375,8.384-5.753
			c-2.219,9.788-10.843,9.688-10.843,9.688h22.722c0,0-8.583-0.053-10.828-9.677c1.377,3.374,4.61,5.742,8.38,5.742
			c5.019,0,9.087-4.197,9.087-9.375C340.207,573.446,322.22,566.096,322.22,554.57L322.22,554.57z"/>
	</g>
	<g transform="translate(-255.2 -410.57)" display="inline">
		<path stroke="#008484" stroke-width="0.0581" stroke-linecap="round" stroke-linejoin="round" d="M662.18,1116.57
			c0-11.525,17.827-19.252,18.016-28.689c0-5.178-4.071-9.376-9.091-9.376c-3.773,0-7.01,2.375-8.384,5.753
			c2.219-9.787,10.843-9.688,10.843-9.688h-22.721c0,0,8.583,0.054,10.828,9.677c-1.377-3.373-4.61-5.742-8.381-5.742
			c-5.019,0-9.087,4.198-9.087,9.376C644.192,1097.695,662.18,1105.045,662.18,1116.57L662.18,1116.57z"/>
	</g>
</g>
<g id="spades" display="none">
	<g transform="translate(-255.2 -410.57)" display="inline">
		<path stroke="#008484" stroke-width="0.0581" stroke-linecap="round" stroke-linejoin="round" d="M492.31,678.877
			c0,64.046-99.061,106.978-100.11,159.425c0,28.771,22.622,52.095,50.511,52.095c20.974,0,38.955-13.194,46.588-31.969
			c-12.328,54.388-60.252,53.836-60.252,53.836h126.259c0,0-47.694-0.295-60.17-53.771c7.652,18.746,25.615,31.904,46.571,31.904
			c27.889,0,50.492-23.323,50.492-52.095C592.264,783.766,492.31,742.923,492.31,678.877L492.31,678.877z"/>
	</g>
</g>
<g id="diamonds_x5F_small" display="none">
	<path display="inline" stroke="#008484" stroke-width="0.0588" stroke-linecap="round" stroke-linejoin="round" d="M406.875,664
		c-5.021,0-9.09,4.313-9.09,9.632c0,3.953,2.248,7.351,5.465,8.833c1.343,1.415,2.524,3.413,3.194,6.233
		c-1.393-3.427-4.606-5.822-8.35-5.822c-5.019,0-9.09,4.314-9.09,9.633c0,5.319,4.071,9.631,9.09,9.631
		c3.753,0,6.976-2.413,8.362-5.853c-2.303,9.813-10.79,9.713-10.79,9.713h22.72c0,0-8.234-0.053-10.682-9.344
		c1.463,3.243,4.585,5.483,8.203,5.483c5.019,0,9.087-4.312,9.087-9.631c0-5.318-4.068-9.633-9.087-9.633
		c-3.604,0-6.715,2.222-8.185,5.441c0.781-2.928,2.141-4.935,3.632-6.307c0,0,0-0.001,0-0.003c2.749-1.655,4.604-4.785,4.604-8.376
		c0-5.318-4.067-9.632-9.088-9.632H406.875z"/>
	<path display="inline" stroke="#008484" stroke-width="0.0588" stroke-linecap="round" stroke-linejoin="round" d="M66.875,144
		c-5.021,0-9.09,4.313-9.09,9.632c0,3.953,2.248,7.351,5.465,8.833c1.343,1.415,2.524,3.413,3.194,6.233
		c-1.393-3.427-4.606-5.822-8.35-5.822c-5.019,0-9.09,4.314-9.09,9.633c0,5.319,4.071,9.631,9.09,9.631
		c3.753,0,6.976-2.413,8.362-5.853C64.154,186.1,55.667,186,55.667,186h22.72c0,0-8.234-0.053-10.682-9.344
		c1.463,3.243,4.585,5.483,8.203,5.483c5.019,0,9.087-4.312,9.087-9.631c0-5.318-4.068-9.633-9.087-9.633
		c-3.604,0-6.715,2.222-8.185,5.441c0.781-2.928,2.141-4.935,3.632-6.307c0,0,0-0.001,0-0.003c2.749-1.655,4.604-4.785,4.604-8.376
		c0-5.318-4.067-9.632-9.088-9.632H66.875z"/>
</g>
<g id="diamonds" display="none">
	<path display="inline" stroke="#008484" stroke-width="0.0588" stroke-linecap="round" stroke-linejoin="round" d="
		M236.305,268.302c-27.898,0-50.515,23.967-50.515,53.524c0,21.969,12.496,40.845,30.369,49.086
		c7.466,7.864,14.032,18.968,17.751,34.638c-7.734-19.039-25.596-32.354-46.397-32.354c-27.89,0-50.513,23.976-50.513,53.533
		c0,29.557,22.623,53.517,50.513,53.517c20.856,0,38.764-13.407,46.471-32.522c-12.799,54.528-59.96,53.976-59.96,53.976h126.255
		c0,0-45.76-0.294-59.36-51.922c8.131,18.019,25.478,30.469,45.586,30.469c27.89,0,50.496-23.96,50.496-53.517
		c0-29.558-22.606-53.533-50.496-53.533c-20.025,0-37.317,12.347-45.484,30.238c4.345-16.27,11.896-27.42,20.183-35.044
		c0,0,0-0.01,0-0.02c15.276-9.197,25.588-26.592,25.588-46.544c0-29.557-22.604-53.524-50.503-53.524H236.305z"/>
</g>
<g id="hearts_x5F_small" display="none">
	<path display="inline" fill="#A31919" stroke="#008484" stroke-width="0.061" stroke-linecap="round" stroke-linejoin="round" d="
		M389.004,674.344c0-5.714,4.072-10.344,9.091-10.344c4.397,0,8.065,3.555,8.907,8.278c0.842-4.724,4.509-8.278,8.906-8.278
		c5.02,0,9.088,4.63,9.088,10.344c0.011,10.827-17.978,18.94-17.978,31.656C407.019,693.282,389.193,684.757,389.004,674.344
		L389.004,674.344z"/>
	<path display="inline" fill="#A31919" stroke="#008484" stroke-width="0.061" stroke-linecap="round" stroke-linejoin="round" d="
		M49.004,154.344c0-5.714,4.072-10.344,9.091-10.344c4.397,0,8.065,3.555,8.907,8.278c0.842-4.724,4.509-8.278,8.906-8.278
		c5.02,0,9.088,4.63,9.088,10.344c0.011,10.827-17.978,18.94-17.978,31.656C67.019,173.282,49.193,164.757,49.004,154.344
		L49.004,154.344z"/>
</g>
<g id="hearts" display="none">
	<path display="inline" fill="#A31919" stroke="#008484" stroke-width="0.061" stroke-linecap="round" stroke-linejoin="round" d="
		M137,325.782c0-31.75,22.624-57.478,50.515-57.478c24.438,0,44.817,19.751,49.494,46.003c4.678-26.252,25.057-46.003,49.495-46.003
		c27.892,0,50.496,25.728,50.496,57.478c0.064,60.165-99.899,105.249-99.899,175.913C237.101,431.022,138.049,383.647,137,325.782
		L137,325.782z"/>
</g>
<g id="clubs_x5F_small" display="none">
	<path display="inline" fill="#A31919" stroke="#008484" stroke-width="0.0619" stroke-linecap="round" stroke-linejoin="round" d="
		M407,706c0,0-5.131-7.98-8.145-11.495c-3.012-3.517-9.85-9.505-9.85-9.505s6.838-5.988,9.85-9.503C401.869,671.982,407,664,407,664
		s5.131,7.982,8.143,11.497c3.014,3.517,9.852,9.503,9.852,9.503s-6.838,5.988-9.852,9.505C412.131,698.02,407,706,407,706z"/>
	<path display="inline" fill="#A31919" stroke="#008484" stroke-width="0.0619" stroke-linecap="round" stroke-linejoin="round" d="
		M67,186c0,0-5.131-7.98-8.145-11.495c-3.012-3.517-9.85-9.505-9.85-9.505s6.838-5.988,9.85-9.503C61.869,151.982,67,144,67,144
		s5.131,7.982,8.143,11.497c3.014,3.517,9.852,9.503,9.852,9.503s-6.838,5.988-9.852,9.505C72.131,178.02,67,186,67,186z"/>
</g>
<g id="clubs" display="none">
	<path display="inline" fill="#A31919" stroke="#008484" stroke-width="0.0619" stroke-linecap="round" stroke-linejoin="round" d="
		M236.996,501.701c0,0-28.509-44.352-45.25-63.883C175.002,418.279,137.001,385,137.001,385s38.002-33.28,54.745-52.812
		c16.741-19.532,45.25-63.89,45.25-63.89s28.518,44.357,45.258,63.89C298.996,351.729,337,385,337,385s-38.004,33.279-54.746,52.818
		C265.514,457.35,236.996,501.701,236.996,501.701z"/>
</g>
<g id="text_x5F_A" display="none">
	<rect x="40" y="69" display="inline" fill="none" width="137" height="65"/>
	<text transform="matrix(1 0 0 1 40 131.4796)" display="inline" font-family="'Myriad-Roman'" font-size="88">A</text>
</g>
</svg>
